<?xml version="1.0" standalone="no"?>
<!DOCTYPE svg PUBLIC "-//W3C//DTD SVG 20010904//EN"
 "http://www.w3.org/TR/2001/REC-SVG-20010904/DTD/svg10.dtd">
<svg version="1.0" xmlns="http://www.w3.org/2000/svg"
 width="420.000000pt" height="420.000000pt" viewBox="0 0 420.000000 420.000000"
 preserveAspectRatio="xMidYMid meet">
<metadata>
Created by potrace 1.14, written by Peter Selinger 2001-2017
</metadata>
<g transform="translate(0.000000,420.000000) scale(0.100000,-0.100000)"
fill="#000000" stroke="none">
<path d="M0 4000 c0 -110 4 -200 9 -200 5 0 11 -9 14 -19 2 -11 17 -22 35 -25
16 -4 46 -25 65 -47 20 -22 45 -39 57 -39 11 0 23 -7 26 -15 4 -8 12 -15 19
-15 14 0 27 -25 18 -34 -4 -3 -24 -6 -45 -6 -31 0 -38 3 -38 20 0 22 -16 27
-23 8 -3 -7 -8 2 -12 20 -7 28 -11 33 -29 28 -12 -3 -38 -9 -58 -12 l-38 -7 0
-189 0 -188 24 -10 c26 -9 44 -30 27 -30 -6 0 -11 -6 -11 -13 0 -8 -9 -22 -20
-32 -19 -17 -20 -31 -20 -386 0 -271 3 -368 12 -371 9 -3 9 -15 0 -50 -8 -30
-12 -143 -12 -311 l0 -265 37 11 c21 6 47 20 58 30 25 23 73 16 96 -14 8 -11
22 -20 30 -19 28 4 39 0 39 -16 0 -10 6 -14 15 -10 20 7 19 -3 -2 -26 -14 -16
-15 -20 -2 -32 23 -22 69 -29 69 -11 0 8 9 15 20 15 19 0 20 4 15 52 -3 28 -8
55 -11 60 -3 4 -7 16 -9 26 -11 61 -30 111 -52 140 -32 42 -39 91 -20 129 9
16 19 58 23 94 4 35 13 73 21 85 7 11 10 24 6 28 -5 4 -3 6 2 5 14 -4 88 71
105 106 8 17 39 68 69 114 34 52 56 96 56 115 1 17 2 42 3 57 1 14 25 53 53
88 43 53 49 67 44 92 -4 16 -10 29 -15 29 -4 0 -8 24 -9 54 0 50 2 55 27 65
l27 11 -27 -4 c-16 -2 -28 1 -28 6 0 5 17 8 38 7 23 -2 48 4 62 14 30 21 73
22 90 2 28 -34 65 -9 63 42 -2 30 0 34 7 18 8 -18 9 -19 9 -1 1 10 12 27 26
38 14 11 25 28 25 38 0 24 62 43 108 34 26 -5 41 1 94 41 35 26 70 50 78 53 8
3 22 10 30 17 23 19 170 75 195 75 13 0 56 14 96 32 73 32 77 32 252 35 151 2
183 5 215 22 68 35 480 29 577 -9 16 -6 68 -33 115 -60 47 -26 104 -51 128
-54 24 -4 53 -13 65 -20 12 -8 45 -19 72 -24 28 -6 63 -16 79 -22 33 -12 109
-88 130 -129 18 -33 79 -90 138 -127 60 -38 189 -170 218 -224 14 -25 34 -58
45 -75 11 -16 25 -37 30 -46 35 -56 148 -201 192 -246 36 -36 51 -58 47 -70
-5 -17 -5 -17 6 -1 15 25 34 23 20 -1 -16 -30 -12 -49 5 -27 13 17 15 17 15 3
0 -20 62 -55 68 -38 4 13 41 -4 58 -28 10 -13 12 -12 18 5 3 11 20 25 37 31
25 10 29 16 24 33 -6 19 -4 21 17 15 12 -4 33 -19 45 -33 23 -27 23 -27 23 -4
0 14 -17 39 -44 65 -24 23 -46 53 -50 65 -4 12 -11 22 -16 22 -4 0 -10 9 -13
20 -3 12 -14 20 -26 20 -17 0 -21 6 -21 34 0 18 7 47 15 62 l15 29 0 -25 c0
-20 2 -22 10 -10 5 8 10 25 10 38 0 15 9 26 26 32 31 12 57 13 50 1 -3 -4 6
-6 19 -3 22 4 25 10 25 44 0 21 -7 49 -15 62 -13 20 -13 35 0 136 12 89 15
231 15 657 l0 543 -2100 0 -2100 0 0 -200z m565 -750 c4 -6 -7 -10 -26 -10
-19 0 -37 -7 -45 -17 -13 -17 -13 -17 -14 0 0 9 -4 17 -10 17 -5 0 -10 4 -10
8 0 12 98 14 105 2z"/>
<path d="M2552 3214 c-30 -21 -31 -49 -1 -33 20 10 21 9 15 -16 -9 -34 -58
-78 -68 -62 -4 7 -8 8 -8 2 0 -11 -46 -35 -67 -35 -11 0 -10 -6 2 -30 17 -32
19 -44 8 -37 -5 3 -7 -20 -7 -51 1 -38 6 -59 18 -67 9 -7 16 -20 16 -29 0 -9
4 -16 8 -16 5 0 16 -16 25 -35 9 -19 22 -35 27 -35 6 0 8 -5 5 -10 -3 -6 1
-13 9 -16 9 -3 16 -12 16 -20 0 -8 6 -14 13 -15 6 -1 21 -2 32 -3 11 0 23 6
27 14 5 13 7 12 7 -2 1 -12 14 -19 44 -25 23 -5 44 -5 45 -1 2 5 10 4 17 -2 9
-8 14 -7 18 3 4 10 18 13 46 10 44 -4 78 9 99 39 7 10 21 18 31 18 10 0 23 11
29 25 7 14 19 28 27 31 25 10 18 56 -15 89 -16 16 -48 51 -70 76 -38 44 -102
85 -147 93 -12 3 -31 9 -42 15 -11 6 -36 11 -56 11 l-37 0 4 45 c3 42 1 45
-21 45 -23 0 -24 1 -6 20 18 19 17 20 -1 20 -11 0 -30 -7 -42 -16z"/>
<path d="M1405 3120 c3 -5 14 -10 23 -10 15 0 15 2 2 10 -20 13 -33 13 -25 0z"/>
<path d="M1450 3110 c0 -5 5 -10 11 -10 5 0 7 5 4 10 -3 6 -8 10 -11 10 -2 0
-4 -4 -4 -10z"/>
<path d="M2441 3094 c0 -11 3 -14 6 -6 3 7 2 16 -1 19 -3 4 -6 -2 -5 -13z"/>
<path d="M1377 3094 c-3 -4 -2 -15 4 -25 11 -21 -7 -59 -27 -59 -19 0 -136
-69 -167 -98 -15 -14 -39 -47 -54 -72 -14 -25 -37 -58 -50 -73 -28 -35 -29
-44 -3 -52 13 -4 22 -20 28 -48 5 -23 14 -41 20 -39 7 1 12 -3 12 -9 0 -6 7
-9 15 -6 8 4 17 2 21 -4 3 -6 12 -8 19 -5 7 2 17 0 23 -6 11 -11 157 36 186
61 14 12 20 13 23 4 5 -15 48 -16 78 -3 11 5 16 9 10 9 -6 1 -6 4 1 9 16 11
84 154 78 163 -3 5 0 9 5 9 13 0 15 47 2 52 -5 2 -11 25 -13 53 -3 50 -22 85
-45 85 -7 0 -13 -4 -13 -10 0 -20 -23 -9 -67 30 -43 37 -71 49 -86 34z m-127
-484 c0 -5 -4 -10 -10 -10 -5 0 -10 5 -10 10 0 6 5 10 10 10 6 0 10 -4 10 -10z"/>
<path d="M3060 3054 c0 -42 90 -169 104 -146 8 14 -40 105 -74 137 -26 25 -30
26 -30 9z"/>
<path d="M976 2861 c-4 -7 -5 -15 -2 -18 9 -9 19 4 14 18 -4 11 -6 11 -12 0z"/>
<path d="M926 2754 c-34 -34 -55 -92 -61 -170 -9 -113 -33 -270 -47 -299 -8
-18 -8 -35 0 -62 9 -30 8 -52 -5 -103 -16 -65 -17 -93 -9 -202 5 -68 10 -78
35 -71 18 5 19 3 5 -36 -11 -32 -13 -77 -9 -189 6 -159 13 -192 56 -261 16
-25 29 -56 29 -69 0 -24 17 -63 32 -73 5 -3 9 -23 10 -45 0 -21 5 -45 11 -52
5 -7 7 -15 4 -18 -14 -14 -36 8 -53 53 -10 26 -35 65 -56 87 l-37 38 -28 -20
c-15 -10 -38 -22 -50 -26 -12 -4 -35 -22 -52 -41 -24 -28 -28 -39 -22 -62 5
-21 14 -29 36 -31 28 -4 55 -23 55 -39 0 -4 -16 -18 -35 -31 -19 -12 -35 -26
-35 -32 0 -5 19 -10 43 -12 34 -2 42 -7 42 -23 0 -30 13 -45 40 -45 15 0 29
-9 36 -22 7 -13 18 -29 26 -36 20 -20 -2 -44 -33 -36 -37 9 -69 -3 -84 -32
-13 -23 -19 -25 -52 -20 -43 7 -61 -12 -38 -39 20 -25 112 -64 183 -79 87 -19
124 -7 185 56 35 37 53 48 72 46 31 -4 50 -40 50 -98 0 -25 7 -63 15 -85 9
-24 14 -81 15 -145 0 -58 5 -123 9 -145 33 -152 44 -195 64 -237 l22 -48 73 0
c62 0 72 2 72 18 0 10 -6 26 -14 37 -16 23 -40 151 -31 166 4 6 32 7 71 3 78
-8 97 4 119 78 8 27 24 57 36 67 l22 18 -24 17 c-13 9 -46 31 -73 47 -29 18
-52 41 -59 59 -6 17 -15 30 -18 30 -22 0 -39 34 -33 66 5 26 0 48 -21 90 -22
45 -25 60 -17 79 6 13 12 56 12 97 3 110 1 108 74 108 58 0 63 -2 79 -30 13
-21 15 -30 6 -30 -24 0 5 -19 36 -23 21 -2 31 -11 36 -28 4 -13 7 -18 8 -11 2
20 21 14 21 -7 0 -10 9 -21 20 -24 12 -3 20 -14 20 -26 0 -12 5 -21 10 -21 6
0 10 7 8 16 -2 10 7 20 20 25 14 5 21 5 17 0 -3 -5 -1 -12 5 -16 6 -4 8 -11 5
-16 -4 -5 -1 -9 5 -9 17 0 37 -23 32 -38 -2 -6 -19 -12 -38 -12 -19 0 -34 -4
-34 -10 0 -5 5 -10 10 -10 6 0 22 -12 36 -27 22 -23 28 -25 45 -15 10 7 19 8
19 3 0 -5 15 -11 33 -13 l32 -3 0 -65 c0 -53 -4 -68 -20 -82 -18 -15 -21 -16
-32 -1 -9 11 -9 21 -2 36 8 14 7 23 -3 33 -12 13 -16 11 -28 -11 -10 -18 -10
-29 -3 -36 13 -13 -15 -74 -52 -112 l-27 -26 33 -28 c33 -28 35 -29 175 -36
22 -1 49 -8 58 -16 15 -13 19 -13 27 0 5 8 9 25 9 38 0 14 7 32 16 42 14 16
14 21 -6 59 -18 35 -25 41 -45 36 -30 -8 -36 10 -22 65 11 44 37 103 37 84 0
-5 7 0 15 12 14 20 23 21 158 21 148 -1 194 9 183 38 -3 8 1 17 9 20 8 4 15
12 15 20 0 7 11 16 25 20 14 3 25 12 25 20 0 8 7 14 16 14 14 0 15 2 3 17 -13
15 -12 15 7 5 11 -6 26 -18 34 -26 18 -23 27 -20 64 17 33 31 68 96 81 149 4
17 17 30 36 37 16 5 33 20 38 33 5 13 19 33 30 45 l21 22 45 -27 c45 -27 55
-48 33 -70 -15 -15 -6 -24 30 -26 19 -1 37 -11 53 -31 36 -44 69 -118 69 -153
0 -35 33 -118 58 -146 14 -14 17 -37 15 -110 -1 -92 -18 -155 -73 -271 -10
-22 -29 -71 -41 -110 -11 -38 -27 -89 -35 -112 l-13 -43 148 0 149 0 27 68
c70 172 103 311 107 442 3 91 -24 204 -39 163 -11 -31 -23 -9 -23 42 0 66 12
75 103 75 35 0 78 5 95 11 37 13 51 39 21 39 -12 0 -33 9 -49 20 -15 11 -48
29 -74 39 -33 15 -47 27 -52 47 -5 18 -3 29 5 32 6 2 17 10 25 17 7 8 23 11
34 8 17 -4 22 1 28 23 4 16 13 37 21 46 8 9 14 31 13 50 -5 81 6 96 50 73 23
-12 35 -14 43 -6 15 15 -18 85 -37 78 -10 -4 -16 7 -21 40 -9 59 -14 73 -30
73 -15 0 -28 -27 -19 -41 3 -6 0 -16 -6 -24 -11 -13 -16 -12 -40 5 -39 28 -48
25 -61 -19 -9 -30 -9 -62 1 -136 6 -54 8 -101 3 -106 -4 -4 -27 -5 -50 -2
l-43 6 0 74 c0 86 34 293 55 333 24 46 34 107 50 283 11 121 12 174 4 189 -8
15 -7 28 5 53 18 38 21 76 5 92 -5 5 -16 35 -23 66 -11 45 -11 68 -1 123 12
62 11 71 -10 130 -13 35 -26 87 -30 115 -9 66 -75 209 -96 209 -15 0 -3 -84
28 -200 45 -167 48 -183 34 -233 -8 -25 -22 -54 -32 -63 -10 -9 -21 -33 -25
-53 -3 -20 -9 -45 -14 -56 -4 -11 -18 -58 -30 -104 -19 -76 -69 -183 -90 -196
-9 -5 -7 -28 5 -66 4 -13 2 -19 -9 -19 -10 0 -16 -9 -16 -23 0 -42 -73 -134
-103 -129 -14 3 -17 12 -16 48 2 24 6 44 11 44 4 0 8 7 8 15 0 8 5 15 11 15 6
0 8 7 5 17 -4 9 -1 20 6 24 10 7 10 11 0 21 -21 21 -14 39 12 34 18 -3 23 -1
19 10 -3 8 -9 14 -13 14 -4 0 -11 11 -14 24 -3 13 -19 38 -36 56 -25 26 -32
29 -44 18 -7 -7 -12 -16 -10 -20 2 -4 0 -9 -6 -13 -6 -4 -8 -10 -5 -15 3 -5 1
-11 -5 -15 -6 -4 -3 -16 7 -33 14 -22 15 -25 2 -15 -12 10 -18 10 -27 1 -18
-18 -15 -43 8 -63 11 -10 20 -23 20 -28 0 -6 -9 -1 -20 11 -21 22 -40 29 -40
14 0 -5 -9 -18 -20 -30 -12 -12 -17 -22 -13 -22 4 0 1 -5 -7 -10 -12 -7 -13
-15 -4 -37 23 -58 25 -67 4 -30 -24 44 -32 46 -50 12 -7 -13 -17 -22 -22 -19
-4 3 -8 2 -8 -3 0 -8 -69 -33 -90 -33 -6 0 -31 15 -55 33 -37 27 -44 37 -45
67 0 21 -3 30 -8 22 -6 -8 -23 9 -55 55 -33 47 -43 69 -34 71 16 3 11 52 -5
52 -5 0 -6 -5 -2 -12 5 -7 3 -8 -5 -4 -7 5 -10 10 -7 13 3 3 -1 18 -9 34 -17
32 -19 53 -6 44 18 -11 -21 55 -40 69 -17 12 -18 14 -4 20 13 5 14 10 5 27
-10 18 -9 19 7 11 16 -9 18 -5 19 40 1 38 -2 48 -13 44 -8 -3 -11 -1 -8 4 3 6
-3 10 -15 10 -14 0 -19 -4 -14 -12 4 -8 3 -10 -2 -5 -5 5 -9 12 -9 15 0 4 -4
13 -9 21 -7 10 -3 12 14 6 18 -6 22 -4 17 9 -3 8 -2 18 3 21 5 3 6 13 3 23 -6
15 -5 16 12 2 17 -14 18 -14 6 8 -10 18 -9 22 4 22 9 0 18 12 22 30 3 17 9 30
13 30 11 0 30 73 30 114 0 46 -13 72 -59 114 -121 113 -185 143 -310 145 -199
4 -301 -30 -402 -135 -79 -81 -94 -115 -81 -186 14 -76 35 -124 71 -160 17
-16 27 -32 24 -36 -4 -3 -1 -6 5 -6 7 0 12 -7 12 -15 0 -8 7 -15 15 -15 8 0
15 -4 15 -9 0 -4 -11 -6 -25 -3 -21 3 -24 1 -19 -12 4 -10 13 -15 20 -12 8 3
21 9 30 13 12 4 15 2 12 -8 -3 -8 -12 -14 -21 -14 -22 0 -46 -26 -30 -32 19
-7 37 -73 24 -86 -6 -6 -11 -18 -11 -27 1 -8 7 -3 16 13 9 16 18 27 20 24 7
-7 -25 -75 -38 -80 -7 -2 -10 -8 -6 -12 4 -4 16 -2 25 6 16 13 17 12 5 -3 -11
-14 -10 -17 8 -23 16 -5 20 -12 16 -28 -3 -12 -6 -28 -6 -36 0 -8 -3 -11 -7
-8 -3 4 -13 1 -22 -6 -13 -10 -13 -7 2 15 9 15 17 34 17 43 0 24 -28 18 -46
-11 -9 -14 -23 -23 -30 -20 -8 3 -15 -6 -19 -25 -5 -21 -11 -29 -21 -25 -10 4
-18 -4 -25 -22 l-11 -27 -12 24 -13 24 -7 -26 c-4 -18 -11 -24 -21 -21 -8 4
-15 1 -15 -5 0 -6 -7 -11 -15 -11 -17 0 -20 -27 -5 -50 8 -13 11 -11 16 7 4
13 11 20 16 17 5 -3 18 2 29 12 10 9 19 15 19 12 0 -9 -37 -48 -47 -48 -5 0
-17 -14 -27 -31 -10 -17 -24 -28 -31 -25 -7 2 -16 -2 -19 -10 -10 -26 -33 -12
-93 60 -13 14 -23 28 -23 31 0 3 0 11 0 18 -1 6 -22 -10 -47 -38 l-46 -50 36
52 37 53 -21 68 c-16 51 -26 68 -40 68 -9 0 -16 -3 -14 -7 2 -3 -14 -39 -35
-80 -22 -41 -39 -69 -40 -64 0 6 16 39 35 73 18 35 31 70 28 78 -3 8 1 14 9
14 21 0 35 31 34 75 l-1 40 -65 3 c-56 2 -69 -1 -91 -20 -41 -36 -62 -104 -50
-158 6 -25 11 -51 11 -59 0 -25 -38 18 -45 50 -4 18 -13 29 -23 29 -27 0 -61
60 -55 97 8 48 -4 81 -29 85 -14 2 -32 21 -51 52 -30 53 -30 52 -8 176 5 30
10 89 10 131 1 88 32 267 56 323 18 43 15 55 -9 30z m908 -129 c-7 -17 -34
-21 -34 -4 0 5 4 8 9 4 5 -3 12 -1 16 5 9 15 15 12 9 -5z m487 -482 c3 1 1 -2
-3 -7 -5 -6 -13 -5 -20 2 -7 7 -8 12 -4 12 5 0 5 6 0 13 -5 7 -2 5 7 -5 9 -9
18 -16 20 -15z m53 -9 c5 -14 4 -15 -9 -4 -17 14 -19 20 -6 20 5 0 12 -7 15
-16z m-4 -204 c6 -11 8 -20 6 -20 -3 0 -10 9 -16 20 -6 11 -8 20 -6 20 3 0 10
-9 16 -20z m-560 -14 c0 -2 -8 -10 -17 -17 -16 -13 -17 -12 -4 4 13 16 21 21
21 13z m617 -116 c16 -27 20 -40 10 -32 -21 18 -61 85 -47 80 6 -2 23 -23 37
-48z m-614 25 c-3 -9 -8 -14 -10 -11 -3 3 -2 9 2 15 9 16 15 13 8 -4z m-167
-53 c-18 -16 -18 -16 -6 6 6 13 14 21 18 18 3 -4 -2 -14 -12 -24z m145 1 c-12
-20 -14 -14 -5 12 4 9 9 14 11 11 3 -2 0 -13 -6 -23z m-256 -122 c-3 -6 -11
-11 -17 -11 -6 0 -6 6 2 15 14 17 26 13 15 -4z m-325 -93 c0 -10 -4 -18 -10
-18 -11 0 -50 72 -50 92 1 19 59 -54 60 -74z m-156 -4 c9 -22 8 -24 -9 -24 -8
0 -15 9 -15 20 0 24 15 27 24 4z m1560 -54 c9 -28 9 -42 -2 -69 -11 -28 -11
-39 -1 -58 10 -19 9 -33 -3 -75 -28 -93 -87 -256 -107 -297 -22 -42 -50 -70
-37 -36 5 15 4 16 -8 6 -9 -7 -18 -21 -21 -30 -3 -10 -17 -23 -30 -29 -14 -6
-25 -18 -25 -26 0 -16 -27 -29 -41 -20 -5 3 -9 1 -9 -4 0 -6 -15 -10 -32 -11
-61 -1 -83 -6 -98 -23 -14 -16 -17 -16 -47 -2 -25 13 -41 14 -77 6 -28 -6 -64
-6 -98 1 -29 5 -63 10 -75 11 -12 0 -19 3 -17 5 8 8 -18 30 -30 25 -15 -6 -44
25 -155 172 -75 99 -92 129 -97 167 -6 45 -5 47 39 91 46 46 61 54 72 36 3 -5
12 -7 20 -3 10 3 15 -1 15 -12 0 -11 5 -15 15 -11 11 4 15 -1 15 -19 0 -26 9
-32 26 -15 11 11 54 -22 54 -42 0 -6 9 -3 20 7 20 18 20 17 20 -10 l0 -27 20
23 c12 14 18 17 14 8 -6 -19 13 -26 74 -25 41 1 42 0 43 -34 l2 -35 6 34 c8
44 31 54 31 13 0 -58 13 -124 21 -110 5 7 9 27 9 43 0 23 -3 27 -10 15 -7 -11
-10 -7 -10 18 0 44 18 41 25 -5 10 -59 15 -63 11 -9 -4 51 8 76 32 68 7 -2 21
3 32 13 12 11 20 13 25 6 4 -8 12 -8 26 -1 14 8 19 7 20 -2 0 -7 4 -4 9 7 l9
20 0 -20 c1 -16 3 -17 11 -5 7 11 11 8 21 -15 6 -17 13 -42 15 -56 4 -29 34
-92 34 -71 0 7 -5 22 -11 33 -6 11 -12 38 -14 60 -5 56 17 62 61 15 40 -42 45
-37 9 9 -23 31 -24 45 -3 45 5 0 6 -5 2 -12 -4 -6 -3 -8 3 -5 15 9 29 56 28
90 -1 32 2 33 27 10 18 -16 19 -16 8 12 -6 17 -9 44 -5 61 7 41 38 50 77 23
26 -19 39 -15 19 7 -12 12 9 106 22 101 5 -1 15 -18 21 -37z m266 -204 c0 -2
-3 -11 -6 -20 -9 -23 -24 -20 -24 4 0 11 7 20 15 20 8 0 15 -2 15 -4z m550
-37 c0 -12 -7 -19 -20 -19 -20 0 -25 15 -14 44 8 21 34 2 34 -25z m-624 -66
c-10 -10 -19 5 -10 18 6 11 8 11 12 0 2 -7 1 -15 -2 -18z m504 -593 c0 -11 -4
-20 -10 -20 -5 0 -10 9 -10 20 0 11 5 20 10 20 6 0 10 -9 10 -20z"/>
<path d="M2212 1210 c0 -14 2 -19 5 -12 2 6 2 18 0 25 -3 6 -5 1 -5 -13z"/>
<path d="M2252 1185 c0 -16 2 -22 5 -12 2 9 2 23 0 30 -3 6 -5 -1 -5 -18z"/>
<path d="M1897 1193 c-4 -3 -7 -11 -7 -17 0 -6 5 -5 12 2 6 6 9 14 7 17 -3 3
-9 2 -12 -2z"/>
<path d="M2181 1184 c-2 -16 29 -74 39 -74 4 0 3 13 -3 29 -6 17 -14 28 -18
25 -4 -2 -10 4 -12 13 -3 10 -5 13 -6 7z"/>
<path d="M2291 1164 c0 -11 3 -14 6 -6 3 7 2 16 -1 19 -3 4 -6 -2 -5 -13z"/>
<path d="M2167 1125 c9 -19 20 -35 24 -35 3 0 -1 16 -9 35 -9 19 -20 35 -24
35 -4 0 0 -16 9 -35z"/>
<path d="M2056 1085 c-9 -26 -7 -32 5 -12 6 10 9 21 6 23 -2 3 -7 -2 -11 -11z"/>
<path d="M2210 1076 c0 -9 5 -16 10 -16 6 0 10 4 10 9 0 6 -4 13 -10 16 -5 3
-10 -1 -10 -9z"/>
<path d="M2171 1064 c0 -11 3 -14 6 -6 3 7 2 16 -1 19 -3 4 -6 -2 -5 -13z"/>
<path d="M3570 2401 c0 -42 -14 -62 -24 -35 -3 8 -14 14 -23 12 -9 -2 -15 -5
-13 -8 2 -3 -2 -15 -9 -28 -8 -15 -9 -28 -3 -35 5 -7 6 -41 2 -82 -8 -74 -7
-107 9 -245 13 -108 8 -132 -25 -120 -26 10 -32 0 -37 -70 -2 -29 2 -35 20
-38 12 -2 24 -11 26 -20 4 -13 5 -12 6 4 0 12 7 27 15 33 17 14 35 -5 46 -51
5 -18 15 -58 23 -88 7 -30 19 -65 25 -77 7 -12 12 -33 12 -47 0 -14 5 -26 10
-26 6 0 10 15 10 33 0 21 9 40 25 55 14 13 30 43 35 65 17 65 18 67 45 77 34
13 40 33 26 81 -11 35 -10 44 10 78 25 45 24 74 -10 226 -18 80 -21 117 -17
185 7 88 -5 150 -28 150 -6 0 -22 -7 -35 -16 -19 -14 -27 -14 -47 -4 -13 8
-24 17 -24 22 0 4 -11 8 -25 8 -22 0 -25 -4 -25 -39z"/>
<path d="M1230 2370 c0 -5 5 -10 10 -10 6 0 10 5 10 10 0 6 -4 10 -10 10 -5 0
-10 -4 -10 -10z"/>
<path d="M444 2245 c-8 -20 0 -80 23 -175 22 -92 22 -240 -2 -295 -10 -25 -13
-51 -9 -74 11 -58 19 -68 57 -67 42 2 67 21 67 50 0 12 7 31 15 42 13 16 16
17 25 4 5 -8 10 -24 10 -35 0 -11 5 -27 10 -35 9 -13 12 -12 25 4 8 11 15 31
15 45 1 14 3 59 6 98 5 61 3 74 -10 79 -9 3 -23 1 -30 -5 -12 -10 -13 -8 -9 8
3 12 -6 37 -24 64 -32 47 -40 70 -52 159 -6 35 -20 73 -38 100 -30 46 -68 62
-79 33z"/>
<path d="M3980 2236 c0 -8 5 -18 10 -21 6 -3 10 3 10 14 0 12 -4 21 -10 21 -5
0 -10 -6 -10 -14z"/>
<path d="M2957 2210 c-3 -11 6 -42 19 -68 13 -26 24 -55 24 -64 0 -19 -28 -50
-39 -44 -4 3 -13 -9 -20 -25 -11 -25 -11 -32 1 -46 11 -14 11 -16 -2 -9 -8 4
14 -20 50 -53 36 -33 68 -61 73 -61 12 0 8 28 -5 34 -9 4 -8 5 2 5 33 -2 38 4
48 74 24 153 24 152 -23 208 -20 23 -95 69 -113 69 -5 0 -12 -9 -15 -20z m64
-295 c0 -5 -5 -11 -12 -14 -7 -2 -9 1 -5 8 4 6 3 11 -1 11 -5 0 -18 7 -29 15
-17 14 -16 14 14 3 18 -7 33 -17 33 -23z"/>
<path d="M2375 2190 c3 -5 8 -10 11 -10 2 0 4 5 4 10 0 6 -5 10 -11 10 -5 0
-7 -4 -4 -10z"/>
<path d="M3958 2159 c-24 -14 -23 -39 2 -39 15 0 20 7 20 25 0 28 1 28 -22 14z"/>
<path d="M4036 2154 c-11 -30 -7 -42 14 -37 23 6 25 19 6 38 -12 12 -15 12
-20 -1z"/>
<path d="M1205 2050 l-40 -18 54 -1 c49 -1 52 0 40 17 -7 9 -14 18 -14 19 0 1
-18 -7 -40 -17z"/>
<path d="M2365 2040 c-3 -6 2 -13 12 -17 10 -3 23 -8 28 -11 6 -3 1 4 -9 16
-22 25 -23 25 -31 12z"/>
<path d="M2425 2020 c10 -11 20 -20 23 -20 3 0 -3 9 -13 20 -10 11 -20 20 -23
20 -3 0 3 -9 13 -20z"/>
<path d="M1679 1953 c-13 -16 -12 -17 4 -4 9 7 17 15 17 17 0 8 -8 3 -21 -13z"/>
<path d="M3871 1786 c-14 -47 -9 -66 15 -66 22 0 63 51 64 78 0 27 -28 41 -41
21 -6 -10 -9 -10 -9 -1 0 27 -16 9 -29 -32z"/>
<path d="M3478 1687 c-32 -25 -29 -60 8 -97 l34 -34 0 54 c-1 64 -18 96 -42
77z"/>
<path d="M2541 1664 c0 -11 3 -14 6 -6 3 7 2 16 -1 19 -3 4 -6 -2 -5 -13z"/>
<path d="M725 1570 c-8 -13 14 -42 26 -34 5 3 9 14 9 25 0 20 -24 26 -35 9z"/>
<path d="M3427 1565 c-11 -28 -8 -83 6 -89 8 -3 7 -8 -5 -16 -22 -14 -24 -60
-3 -60 16 0 21 18 28 91 5 51 -15 105 -26 74z"/>
<path d="M460 1518 c0 -30 22 -88 33 -88 9 0 1 86 -10 103 -9 15 -23 6 -23
-15z"/>
<path d="M583 1290 c-26 -11 -36 -38 -28 -77 8 -35 26 -73 35 -73 12 0 28 46
35 103 8 61 4 65 -42 47z"/>
<path d="M331 828 c11 -20 30 -20 36 -1 2 6 -7 13 -21 15 -22 4 -24 3 -15 -14z"/>
<path d="M317 780 c-3 -11 -1 -20 4 -20 5 0 9 9 9 20 0 11 -2 20 -4 20 -2 0
-6 -9 -9 -20z"/>
<path d="M393 781 c-14 -23 -8 -31 25 -31 29 0 25 -24 -6 -28 -32 -5 -27 -22
7 -22 28 0 41 14 41 46 0 8 -7 14 -16 14 -11 0 -14 6 -9 20 8 27 -25 28 -42 1z"/>
<path d="M788 503 c-10 -3 -18 -9 -18 -14 0 -12 37 -12 45 0 7 12 -5 19 -27
14z"/>
<path d="M703 443 c20 -5 22 -19 5 -26 -22 -9 14 -27 47 -25 22 2 31 9 33 24
2 17 -4 23 -29 28 -37 7 -85 7 -56 -1z"/>
<path d="M287 323 c-13 -12 -7 -23 13 -23 11 0 20 7 20 15 0 15 -21 21 -33 8z"/>
</g>
</svg>
